<svg id="Layer_1" data-name="Layer 1" xmlns="http://www.w3.org/2000/svg" viewBox="0 0 800 800"><title>logo</title><rect x="-11" y="-11" width="848" height="868" fill="#fff"/><text transform="translate(-777.3 405.2)" font-size="105.41" font-family="BourtonBase, Bourton">Bourton B<tspan x="536" y="0" letter-spacing="-0.01em">a</tspan><tspan x="595.7" y="0">se</tspan></text><polygon points="800 800 3.3 3.3 0 0 800 0 800 800" fill="#44a3f2"/><path d="M250,402.8H208.6V591.4H250c27.6,0,47.4-17.9,47.4-46.9V450.2C297.4,421.2,282.2,402.8,250,402.8Z"/><path d="M517.2,402.8H475.8V591.4h41.4c27.6,0,47.4-17.9,47.4-46.9V450.2C564.6,421.2,549.4,402.8,517.2,402.8Z"/><polygon points="790.9 524.7 771.1 455.3 752.7 524.7 790.9 524.7"/><path d="M738,581.8l-17.5,64.4c-.4,1.8-1.3,2.7-3.2,2.7H664.4a4.1,4.1,0,0,1-4.1-5l79.6-295.8c.4-1.4,1.3-2.8,3.2-2.8H800V0H0V799.1a.9.9,0,0,0,.9.9H800V581.8ZM357.6,558.3c0,55.7-32.2,90.6-91.1,90.6h-115a3.6,3.6,0,0,1-3.6-3.7V349.5a4.1,4.1,0,0,1,4.1-4.2H266.5c31.3,0,54.8,8.8,70.4,25.8,13.8,15.2,20.7,37.7,20.7,65.3Zm267.3,0c0,55.7-32.2,90.6-91.1,90.6h-115a3.7,3.7,0,0,1-3.7-3.7V349.5a4.2,4.2,0,0,1,4.2-4.2H533.8c31.3,0,54.7,8.8,70.4,25.8,13.8,15.2,20.7,37.7,20.7,65.3Z"/></svg>